<svg
	width="128"
	height="128"
	viewBox="0 0 128 128"
	fill="none"
	xmlns="http://www.w3.org/2000/svg"
>
	<path
		d="M95.4164 53.8344C115.915 41.6673 109.763 22.7695 104.338 14.4175C95.1786 36.5368 68.6548 30.4184 58.8797 33.8363C51.9382 35.6882 42.144 41.1945 36.2622 46.1201C34.9883 47.1869 31.7167 49.5318 31.8775 50.9935C32.3581 53.6431 35.1901 53.3674 37.4771 51.9302C44.3048 47.6396 61.6728 39.5495 75.8881 42.609C90.903 47.8626 75.3718 52.3532 70.0188 57.9478C65.8241 64.3909 69.6343 69.0457 71.6717 67.1133C79.3641 58.1167 82.7752 61.7206 95.4164 53.8344Z"
		fill="#FF2E6B"
	/>
	<path
		d="M32.5838 74.1656C12.0856 86.3327 18.2369 105.23 23.6622 113.582C32.8216 91.4632 59.3454 97.5816 69.1205 94.1637C76.062 92.3118 85.8562 86.8055 91.738 81.8799C93.0119 80.8131 96.2835 78.4682 96.1227 77.0065C95.6421 74.3569 92.8101 74.6326 90.5231 76.0698C83.6954 80.3604 66.3274 88.4505 52.1122 85.391C37.0972 80.1374 52.6285 75.6468 57.9815 70.0522C62.1761 63.6091 58.3659 58.9543 56.3285 60.8867C48.6361 69.8833 45.225 66.2794 32.5838 74.1656Z"
		fill="#F4AE0B"
	/>
</svg>
