<svg
	width="52"
	height="143"
	viewBox="0 0 52 143"
	fill="none"
	xmlns="http://www.w3.org/2000/svg"
>
	<path
		d="M0.91761 141.206L8.99292 142.412L10.1996 134.337L2.12427 133.13L0.91761 141.206ZM6.15344 138.575C7.09558 137.878 8.0202 137.17 8.92753 136.452L7.68673 134.884C6.79623 135.588 5.88865 136.283 4.96375 136.967L6.15344 138.575ZM14.2351 131.966C15.9741 130.396 17.6408 128.786 19.2373 127.141L17.8018 125.748C16.2358 127.362 14.6009 128.941 12.8948 130.482L14.2351 131.966ZM23.9168 121.984C25.4302 120.2 26.8702 118.382 28.2391 116.533L26.6318 115.343C25.2888 117.156 23.8762 118.94 22.3917 120.69L23.9168 121.984ZM32.1902 110.815C33.4541 108.852 34.6454 106.861 35.7669 104.848L34.0196 103.875C32.9185 105.852 31.7491 107.805 30.5087 109.732L32.1902 110.815ZM38.9592 98.6702C39.9638 96.5696 40.8983 94.4497 41.7659 92.3155L39.9131 91.5623C39.0603 93.6604 38.1418 95.7436 37.1549 97.8073L38.9592 98.6702ZM44.1952 85.8023C44.9458 83.5986 45.6297 81.385 46.25 79.1666L44.3239 78.628C43.7133 80.8116 43.0403 82.9897 42.302 85.1575L44.1952 85.8023ZM47.9392 72.4331C48.446 70.1585 48.8896 67.8843 49.2735 65.6161L47.3016 65.2823C46.9233 67.5175 46.4862 69.7579 45.987 71.9982L47.9392 72.4331ZM50.2593 58.7502C50.5338 56.431 50.7484 54.1238 50.907 51.8348L48.9118 51.6966C48.7554 53.9539 48.5437 56.2288 48.2732 58.5151L50.2593 58.7502ZM51.2206 44.9074C51.2708 42.5639 51.2641 40.2466 51.2045 37.9623L49.2052 38.0144C49.2639 40.2675 49.2706 42.5531 49.2211 44.8645L51.2206 44.9074ZM50.8586 31.0413C50.6842 28.6872 50.4547 26.3783 50.175 24.1228L48.1902 24.3689C48.4658 26.5917 48.6921 28.8678 48.864 31.189L50.8586 31.0413ZM49.1434 17.2569C48.7278 14.9135 48.258 12.6443 47.7405 10.4602L45.7944 10.9213C46.3028 13.0674 46.765 15.2993 47.1741 17.6062L49.1434 17.2569ZM45.9221 3.74983C45.5729 2.61497 45.2104 1.5113 44.8358 0.44089L42.9481 1.10159C43.314 2.14714 43.6686 3.22659 44.0105 4.33798L45.9221 3.74983Z"
		fill="#387CE1"
		fill-opacity="0.63"
	/>
</svg>
